<svg xmlns="http://www.w3.org/2000/svg" xmlns:xlink="http://www.w3.org/1999/xlink" version="1.1" x="0px" y="0px" viewBox="0 0 100 100" enable-background="new 0 0 100 100" xml:space="preserve"><path d="M50,5C25.2,5,5,25.1,5,50c0,24.9,20.2,45,45,45c24.9,0,45-20.1,45-45C95,25.1,74.9,5,50,5L50,5z M50.9,80.3  c-3.1,0.4-6.5-1.7-8-3.9h14.4C55.8,78.6,53.6,80,50.9,80.3L50.9,80.3z M57.7,73.3H42.4c-1.2,0-2.2-0.9-2.2-2c0-1.1,1-2,2.2-2h15.3  c1.2,0,2.2,0.9,2.2,2C59.9,72.3,58.9,73.3,57.7,73.3L57.7,73.3z M66.9,49.5c-1.1,1.6-2.3,3.2-3.4,4.7c-1.8,2.4-3.1,4.9-3.3,7.8  c-0.1,0.4-0.1,0.9-0.1,1.3c0,1.7-1.2,2.9-3.1,2.9h-0.2c-1.9,0-13.1,0-14,0c-1.6,0-2.9-1.2-2.9-2.6c0-3.2-1.1-6-2.9-8.6  c-1.5-2.1-3-4-4.3-6.2c-4.1-6.6-4.1-15.9,1.7-22.3c3.5-3.9,8-6.1,13.5-6.7c0.8-0.1,1.5-0.2,2.3-0.2c8.5,0,16.3,5.1,19,12.8  C71.2,38.3,70.3,44.1,66.9,49.5z"></path></svg>